<svg width="21" height="21" fill="none" xmlns="http://www.w3.org/2000/svg"><path d="M16.061 3.687a1.25 1.25 0 100 2.5 1.25 1.25 0 000-2.5zm4.792 2.521a7.908 7.908 0 00-.48-2.531 5.147 5.147 0 00-1.208-1.844A4.896 4.896 0 0017.322.635a7.604 7.604 0 00-2.532-.49C13.686.084 13.332.084 10.5.084c-2.834 0-3.188 0-4.292.063a7.604 7.604 0 00-2.531.49 4.98 4.98 0 00-1.844 1.197A4.896 4.896 0 00.634 3.677a7.604 7.604 0 00-.49 2.531C.083 7.312.083 7.666.083 10.5c0 2.833 0 3.187.063 4.291.017.866.183 1.722.49 2.532a4.896 4.896 0 001.197 1.843 4.979 4.979 0 001.844 1.198 7.61 7.61 0 002.531.49c1.104.062 1.458.062 4.292.062 2.833 0 3.187 0 4.291-.062a7.603 7.603 0 002.532-.49 4.895 4.895 0 001.843-1.198 5.053 5.053 0 001.209-1.843 7.908 7.908 0 00.479-2.532c0-1.104.062-1.458.062-4.291 0-2.834 0-3.188-.062-4.292zm-1.875 8.458a5.845 5.845 0 01-.354 1.938 3.188 3.188 0 01-.782 1.198c-.337.344-.746.61-1.197.781a5.844 5.844 0 01-1.938.354c-1.042.052-1.427.063-4.167.063-2.74 0-3.125 0-4.166-.063a5.966 5.966 0 01-2.021-.312 3.407 3.407 0 01-1.146-.782 3.126 3.126 0 01-.77-1.197 5.771 5.771 0 01-.417-1.98c0-1.041-.063-1.427-.063-4.166 0-2.74 0-3.125.063-4.167a5.77 5.77 0 01.364-1.98 3.13 3.13 0 01.823-1.145 3.27 3.27 0 011.146-.833 5.969 5.969 0 011.979-.354c1.042 0 1.427-.063 4.167-.063 2.74 0 3.125 0 4.166.063a5.844 5.844 0 011.938.354c.473.175.898.461 1.24.833.34.32.608.711.78 1.146.232.634.352 1.304.355 1.979.052 1.042.062 1.427.062 4.167 0 2.74-.01 3.125-.062 4.166zm-8.48-9.51a5.344 5.344 0 105.355 5.344 5.335 5.335 0 00-5.354-5.344zm0 8.813a3.469 3.469 0 110-6.938 3.469 3.469 0 010 6.938z" fill="#1A1930"/></svg>