<svg width="23" height="21" fill="none" xmlns="http://www.w3.org/2000/svg"><path d="M22.948 2.115a1.04 1.04 0 00-1.574-.895c-.61.363-1.266.64-1.95.826A5.367 5.367 0 0015.908.752a5.45 5.45 0 00-5.442 5.274A11.492 11.492 0 013.37 1.94a1.054 1.054 0 00-.893-.38 1.04 1.04 0 00-.818.52 5.495 5.495 0 00-.252 4.968l-.002.002a1.085 1.085 0 00-.516.925 3.17 3.17 0 00.027.458 5.402 5.402 0 001.634 3.45 1.04 1.04 0 00-.069.802 5.421 5.421 0 002.46 3.044 7.776 7.776 0 01-3.739.467 1.041 1.041 0 00-.692 1.91 13.482 13.482 0 007.301 2.147 13.32 13.32 0 0012.985-9.754c.367-1.232.555-2.512.557-3.798V6.49a6.01 6.01 0 001.595-4.376zm-3.444 3.346a1.03 1.03 0 00-.243.731c.01.172.009.345.009.508a11.272 11.272 0 01-.473 3.21A11.13 11.13 0 017.81 18.167a11.44 11.44 0 01-2.657-.313 9.877 9.877 0 003.065-1.629 1.042 1.042 0 00-.626-1.86 3.342 3.342 0 01-2.306-.974c.155-.03.31-.066.463-.11a1.041 1.041 0 00-.083-2.024A3.331 3.331 0 013.322 9.46c.189.025.378.041.568.047a1.063 1.063 0 001.024-.725A1.041 1.041 0 004.498 7.6a3.329 3.329 0 01-1.477-2.99 13.556 13.556 0 008.551 3.624 1.065 1.065 0 00.852-.373 1.043 1.043 0 00.214-.905 3.293 3.293 0 01-.09-.759 3.365 3.365 0 014.693-3.085c.42.183.799.451 1.11.787a1.034 1.034 0 00.96.31c.427-.083.85-.195 1.262-.335a6.959 6.959 0 01-1.07 1.588z" fill="#1A1930"/></svg>