<svg width="15" height="23" fill="none" xmlns="http://www.w3.org/2000/svg"><path d="M14.613 8.833a1.043 1.043 0 00-.864-.459h-3.125V6.291h2.291a1.042 1.042 0 001.042-1.042V1.083A1.041 1.041 0 0012.915.04H9.582A6.042 6.042 0 003.54 6.083v2.291H1.25A1.042 1.042 0 00.207 9.416v4.167a1.042 1.042 0 001.042 1.041H3.54v7.292a1.042 1.042 0 001.042 1.042h5a1.041 1.041 0 001.042-1.042v-7.292h1.458a1.042 1.042 0 00.969-.656l1.666-4.167a1.04 1.04 0 00-.104-.968zm-3.24 3.708h-1.79a1.042 1.042 0 00-1.042 1.042v7.291H5.624v-7.291a1.042 1.042 0 00-1.042-1.042H2.29v-2.083h2.292a1.041 1.041 0 001.042-1.042V6.083a3.969 3.969 0 013.958-3.959h2.292v2.084h-.834a2.604 2.604 0 00-2 .541 1.813 1.813 0 00-.5 1.334v3.333a1.042 1.042 0 001.042 1.042h2.625l-.833 2.083z" fill="#1A1930"/></svg>