<svg width="23" height="23" fill="none" xmlns="http://www.w3.org/2000/svg"><path d="M17.23 8.373c-.932 0-1.85.23-2.672.672a1.04 1.04 0 00-.973-.672H9.418a1.042 1.042 0 00-1.042 1.042v12.5a1.042 1.042 0 001.042 1.042h4.167a1.041 1.041 0 001.041-1.042v-5.73a1.041 1.041 0 112.084 0v5.73a1.042 1.042 0 001.041 1.042h4.167a1.04 1.04 0 001.042-1.042v-7.813a5.736 5.736 0 00-5.73-5.729zm3.646 12.5h-2.083v-4.687a3.125 3.125 0 00-6.25 0v4.687H10.46V10.457h2.083v.732a1.042 1.042 0 001.856.651 3.628 3.628 0 016.477 2.262v6.771zM6.293 8.373H2.126a1.041 1.041 0 00-1.041 1.042v12.5a1.042 1.042 0 001.041 1.042h4.167a1.041 1.041 0 001.042-1.042v-12.5a1.041 1.041 0 00-1.042-1.042zm-1.042 12.5H3.168V10.457h2.083v10.416zM4.225.606a3.367 3.367 0 10-.059 6.726h.03A3.368 3.368 0 104.224.606zm-.03 4.642h-.029a1.273 1.273 0 01-1.426-1.28c0-.777.583-1.279 1.485-1.279a1.285 1.285 0 011.455 1.28c0 .777-.583 1.28-1.484 1.28z" fill="#1A1930"/></svg>